<mxfile host="app.diagrams.net" modified="2021-02-26T07:03:10.752Z" agent="5.0 (Macintosh; Intel Mac OS X 11_0_0) AppleWebKit/537.36 (KHTML, like Gecko) Chrome/88.0.4324.182 Safari/537.36" etag="BOqKewNgnf6abP1blEp6" version="14.4.3" type="github">
  <diagram id="0AzZb19bsxnPVwuyEdbw" name="第 1 页">
    <mxGraphModel dx="1186" dy="569" grid="0" gridSize="10" guides="1" tooltips="1" connect="1" arrows="1" fold="1" page="1" pageScale="1" pageWidth="827" pageHeight="1169" math="0" shadow="0">
      <root>
        <mxCell id="0" />
        <mxCell id="1" parent="0" />
        <mxCell id="k3NLaYfG3aFrSewNFesT-1" value="" style="endArrow=classic;html=1;" edge="1" parent="1">
          <mxGeometry width="50" height="50" relative="1" as="geometry">
            <mxPoint x="143" y="298" as="sourcePoint" />
            <mxPoint x="671" y="298" as="targetPoint" />
          </mxGeometry>
        </mxCell>
        <mxCell id="k3NLaYfG3aFrSewNFesT-2" value="" style="endArrow=none;html=1;" edge="1" parent="1">
          <mxGeometry width="50" height="50" relative="1" as="geometry">
            <mxPoint x="343" y="337" as="sourcePoint" />
            <mxPoint x="343" y="298" as="targetPoint" />
          </mxGeometry>
        </mxCell>
        <mxCell id="k3NLaYfG3aFrSewNFesT-3" value="12:00:00" style="text;html=1;strokeColor=none;fillColor=none;align=center;verticalAlign=middle;whiteSpace=wrap;rounded=0;" vertex="1" parent="1">
          <mxGeometry x="325" y="343" width="40" height="20" as="geometry" />
        </mxCell>
        <mxCell id="k3NLaYfG3aFrSewNFesT-4" value="" style="endArrow=none;html=1;" edge="1" parent="1">
          <mxGeometry width="50" height="50" relative="1" as="geometry">
            <mxPoint x="413" y="336" as="sourcePoint" />
            <mxPoint x="413" y="297" as="targetPoint" />
          </mxGeometry>
        </mxCell>
        <mxCell id="k3NLaYfG3aFrSewNFesT-5" value="" style="endArrow=none;html=1;" edge="1" parent="1">
          <mxGeometry width="50" height="50" relative="1" as="geometry">
            <mxPoint x="486" y="338" as="sourcePoint" />
            <mxPoint x="486" y="299" as="targetPoint" />
          </mxGeometry>
        </mxCell>
        <mxCell id="k3NLaYfG3aFrSewNFesT-6" value="12:00:05" style="text;html=1;strokeColor=none;fillColor=none;align=center;verticalAlign=middle;whiteSpace=wrap;rounded=0;" vertex="1" parent="1">
          <mxGeometry x="394" y="343" width="40" height="20" as="geometry" />
        </mxCell>
        <mxCell id="k3NLaYfG3aFrSewNFesT-7" value="12:00:10" style="text;html=1;strokeColor=none;fillColor=none;align=center;verticalAlign=middle;whiteSpace=wrap;rounded=0;" vertex="1" parent="1">
          <mxGeometry x="469" y="343" width="40" height="20" as="geometry" />
        </mxCell>
      </root>
    </mxGraphModel>
  </diagram>
</mxfile>
